<svg class="social-accounts-icon" xmlns="http://www.w3.org/2000/svg" viewBox="0 0 32 32"><path fill="#aaa" d="M4.5,25.4V14.8L16,5.4l11.5,9.4v10.6c0,0.7-0.5,1.3-1.3,1.3H19v-8.5h-6v8.5H5.8C5.1,26.7,4.5,26.1,4.5,25.4z
                    	 M0.9,14.3l-0.8-0.9c-0.2-0.3-0.2-0.7,0.1-0.9L15,0.4c0.6-0.5,1.4-0.5,2,0l4.1,3.3V2c0-0.4,0.3-0.7,0.7-0.7h3.8
                    	c0.4,0,0.6,0.3,0.6,0.7v5.9l5.6,4.6c0.3,0.2,0.3,0.6,0.1,0.9l-0.8,0.9c-0.1,0.2-0.3,0.2-0.5,0.2h-1.1c-0.2,0-0.3-0.1-0.4-0.1L16.4,4
                    	c-0.3-0.2-0.6-0.2-0.9,0L2.9,14.4c-0.1,0.1-0.2,0.1-0.4,0.1H1.4C1.2,14.5,1,14.4,0.9,14.3z"></path></svg>