<svg class="social-accounts-icon" xmlns="http://www.w3.org/2000/svg" viewBox="0 0 24 24"><path fill="#aaa" d="M12,2.2h4.9c3.3.1,4.8,1.7,4.9,4.9.1,1.3.1,1.6.1,4.8s0,3.6-.1,4.8c-.1,3.2-1.7,4.8-4.9,4.9H7.2c-3.3-.1-4.8-1.7-4.9-4.9-.1-1.3-.1-1.6-.1-4.8s0-3.6.1-4.8c.1-3.2,1.7-4.8,4.9-4.9ZM12,0H7.1C2.7.3.3,2.7.1,7.1,0,8.3,0,8.7,0,12s0,3.7.1,4.9c.2,4.4,2.6,6.8,7,7h9.9c4.4-.2,6.8-2.6,7-7,.1-1.3.1-1.7.1-4.9s0-3.7-.1-4.9c-.2-4.4-2.6-6.8-7-7Zm0,5.8A6.2,6.2,0,1,0,18.2,12,6.2,6.2,0,0,0,12,5.8ZM12,16a4,4,0,1,1,4-4A4,4,0,0,1,12,16ZM18.4,4.2a1.4,1.4,0,1,0,1.4,1.4A1.4,1.4,0,0,0,18.4,4.2Z"></path></svg>